<?xml version="1.0" encoding="UTF-8"?>
<svg xmlns="http://www.w3.org/2000/svg" viewBox="0 0 800 1000" width="800" height="1000">
  <!-- AURA LIVING — Final Logo v2
       Icon: AI-generated v6 (9/10) → auto-traced → cleaned (29.5KB, 20 paths)
       Text: Clean SVG typography with refined spacing
       Background: Brand off-white #FAF8F4 -->

  <!-- Background -->
  <rect width="800" height="1000" fill="#FAF8F4"/>

  <!-- Traced icon — centered, scaled to 640x640 area (slightly larger)
       Original viewBox 1024x1024, scaled by 0.625 = 640/1024
       Translated to center horizontally (80) and start at y=70 -->
  <g transform="translate(80, 70) scale(0.625)">
      <path d="M0 0 C337.92 0 675.84 0 1024 0 C1024 337.92 1024 675.84 1024 1024 C686.08 1024 348.16 1024 0 1024 C0 686.08 0 348.16 0 0 Z " fill="#F8DA95" transform="translate(0,0)"/>
      <path d="M0 0 C7.237791 5.080017 14.492884 10.135138 21.75 15.1875 C22.737422 15.875215 22.737422 15.875215 27.734375 19.355469 C31.465905 21.938197 35.224032 24.482688 39 27 C48.906347 33.857553 58.751415 40.794883 68.5 47.875 C75.229114 52.753902 82.060647 57.42298 89 62 C91.816974 63.910085 94.629257 65.827102 97.4375 67.75 C98.096855 68.201172 98.096855 68.201172 101.433594 70.484375 C104.365244 72.552264 107.198569 74.758855 110 77 C110.99 77.33 111.98 77.66 113 78 C112.976797 76.819219 112.976797 76.819219 112.859375 70.84375 C112.82185 67.729179 112.785451 64.614595 112.75 61.5 C112.716484 59.945391 112.682969 58.390781 112.648438 56.789062 C112.543576 44.520311 114.241713 37.158568 124 29 C130.334913 26.441656 135.685883 25.61865 142.491943 25.595947 C143.41644 25.589605 143.41644 25.589605 148.094955 25.55751 C150.073269 25.560446 152.051582 25.563382 154.089844 25.566406 C156.139821 25.561164 158.189798 25.555923 160.301895 25.550522 C164.631516 25.544106 168.961154 25.545433 173.290771 25.553955 C179.909659 25.562464 186.527683 25.533693 193.146484 25.501953 C197.356771 25.500341 201.567058 25.500919 205.777344 25.503906 C207.753633 25.492672 209.729922 25.481438 211.766098 25.469864 C225.657366 25.540222 235.235894 26.195285 244 38 C247.444898 44.889796 247.349881 48.68214 247.30542 56.335938 C247.299393 58.878774 247.293365 61.421611 247.287155 64.041504 C247.282322 64.720407 247.282322 64.720407 247.257864 68.156067 C247.230246 72.409375 247.225328 76.662136 247.227371 80.915527 C247.230905 93.007029 247.20771 105.098162 247.134033 117.189453 C247.090562 124.588235 247.085753 131.9862 247.105616 139.385071 C247.105518 142.204731 247.090605 145.024432 247.060659 147.843933 C247.019919 151.783768 247.032526 155.724046 247.047607 159.664062 C247.038559 161.906548 247.02951 164.149033 247.020187 166.459473 C248.237819 173.344793 250.069046 174.589499 256 178 C257.52625 179.0725 259.0525 180.145 260.625 181.25 C262.39875 182.4875 264.1725 183.725 266 185 C273.627245 190.427078 281.22948 195.886338 288.8125 201.375 C296.230783 206.73967 303.697049 212.031962 311.183594 217.300781 C316.157744 220.818834 321.072788 224.416573 326 228 C330.321995 231.064761 334.651709 234.118315 338.984375 237.167969 C340.309531 238.102539 341.634688 239.037109 343 240 C343.631641 240.420879 343.631641 240.420879 346.828125 242.550781 C352.98056 247.301491 353.605582 251.632089 353 259 C349.68098 265.638039 347.812327 268.666961 340.25 269.5625 C330.620546 268.530773 324.386661 262.868854 317 257 C313.677107 254.651822 310.342544 252.320119 307 250 C304.684868 248.357871 302.372529 246.7118 300.0625 245.0625 C299.521738 244.676426 299.521738 244.676426 296.785156 242.722656 C291.842873 239.16768 286.923604 235.580803 282 232 C282 358.72 282 485.44 282 616 C285.63 616 289.26 616 293 616 C306.496089 620.515949 313.461734 629.077379 319 642 C319.314795 647.323158 319.464015 652.49272 319.4375 657.8125 C319.45748 659.223379 319.477461 660.634258 319.498047 662.087891 C319.490252 678.775783 313.790446 688.493562 301 699 C294.448198 702.164558 288.805637 702.376648 281.579912 702.380317 C280.408094 702.384537 280.408094 702.384537 274.477984 702.405892 C273.189578 702.402887 273.189578 702.402887 266.669464 702.38768 C263.906068 702.391852 261.142674 702.397328 258.379283 702.404 C250.777575 702.418494 243.175976 702.414197 235.574262 702.406833 C227.379169 702.402113 219.184099 702.414601 210.989014 702.42485 C194.931063 702.442067 178.873152 702.442872 162.815195 702.437638 C149.766267 702.4336 136.71735 702.435034 123.668423 702.440386 C121.812902 702.441134 119.957381 702.441883 118.045632 702.442654 C114.276432 702.444185 110.507231 702.445724 106.738031 702.447269 C71.372254 702.461004 36.006498 702.455549 0.640722 702.444084 C-31.729934 702.43415 -64.100533 702.447092 -96.471179 702.471018 C-129.691592 702.495387 -162.911977 702.505022 -196.132398 702.498365 C-214.790266 702.494868 -233.448091 702.497137 -252.105953 702.514616 C-267.988945 702.529311 -283.871862 702.530009 -299.754852 702.512545 C-307.86131 702.50401 -315.967634 702.501947 -324.074085 702.517197 C-331.492106 702.530979 -338.909877 702.526363 -346.327883 702.506957 C-350.288758 702.501384 -354.249646 702.515522 -358.210497 702.530312 C-360.559349 702.520497 -362.908201 702.510683 -365.32823 702.500571 C-367.355397 702.500464 -369.382564 702.500357 -371.471161 702.500246 C-377.351659 701.968182 -381.712372 700.592377 -387 698 C-387 697.34 -387 696.68 -387 696 C-388.32 695.67 -389.64 695.34 -391 695 C-405.547556 680.14937 -405.782185 657.272205 -401 638 C-400.505 637.01 -400.505 637.01 -398 632 C-397.34 632 -396.68 632 -396 632 C-395.67 631.175 -395.67 631.175 -394 627 C-385.662545 618.662545 -378.813206 616 -367 616 C-367 487.3 -367 358.6 -367 226 C-374.73687 230.923462 -382.383972 235.898698 -390 241 C-393.582355 243.397296 -397.165767 245.793013 -400.75 248.1875 C-401.623984 248.77209 -401.623984 248.77209 -406.046875 251.730469 C-407.681406 252.809414 -409.315938 253.888359 -411 255 C-411.683203 255.482754 -411.683203 255.482754 -415.140625 257.925781 C-419 260 -419 260 -427 260 C-435.228754 254.027517 -436.886773 250.19789 -436 240 C-432.601553 234.368288 -421.812349 224 -415 224 C-415 223.34 -415 222.68 -415 222 C-412.255348 220.19714 -409.45157 218.484003 -406.625 216.8125 C-399.886159 212.771303 -393.402184 208.56046 -387 204 C-386.102813 203.432813 -386.102813 203.432813 -381.5625 200.5625 C-377.801014 198.153458 -374.112458 195.627242 -370.5 193 C-365.118666 189.086302 -359.622973 185.557391 -354 182 C-346.982262 177.359923 -339.993545 172.676435 -333 168 C-326.853663 163.901145 -320.706138 159.804075 -314.558594 155.707031 C-311.215805 153.477722 -307.874256 151.246549 -304.535156 149.011719 C-299.118211 145.38759 -293.691435 141.804244 -288.1875 138.3125 C-284.807754 136.154349 -281.470636 133.927459 -278.1875 131.625 C-273.05131 128.035855 -267.824282 124.646556 -262.542969 121.277344 C-259.150509 119.096744 -255.793026 116.862017 -252.4375 114.625 C-249.008752 112.339168 -245.533593 110.120156 -242 108 C-241.154375 107.38125 -241.154375 107.38125 -236.875 104.25 C-231.360256 100.260611 -225.751047 96.638418 -220 93 C-202.342384 81.356708 -202.342384 81.356708 -194.019531 75.488281 C-188.851029 71.896474 -183.582691 68.529982 -178.25 65.1875 C-170.736657 60.43375 -163.414448 55.543736 -156.234375 50.304688 C-151.676264 47.056758 -146.959303 44.079736 -142.234375 41.082031 C-139.446103 39.287166 -136.716591 37.401614 -134 35.5 C-128.880445 31.916311 -123.6542 28.555112 -118.386719 25.195312 C-113.840823 22.248607 -109.435074 19.110311 -105 16 C-104.123438 15.443125 -104.123438 15.443125 -99.6875 12.625 C-95.672493 10.065985 -91.718563 7.409908 -87.8125 4.6875 C-57.631694 -16.28135 -31.808144 -22.886347 0 0 Z " fill="#060403" transform="translate(555,168)"/>
      <path d="M0 0 C0 0.66 0 1.32 0 2 C1.65 2.66 3.3 3.32 5 4 C7.407502 5.554963 9.778438 7.167015 12.125 8.8125 C13.536523 9.796055 14.948047 10.779609 16.402344 11.792969 C17.91957 12.851289 19.436797 13.909609 21 15 C24.226986 17.211519 27.456177 19.419823 30.6875 21.625 C38.143475 26.723616 45.573478 31.858561 53 37 C56.082716 39.10507 59.166102 41.209162 62.25 43.3125 C70.144171 48.704416 77.966497 54.189565 85.753906 59.734375 C89 62 89 62 91 63 C91 63.66 91 64.32 91 65 C92.65 65.66 94.3 66.32 96 67 C98.263764 68.51194 100.490084 70.080655 102.6875 71.6875 C103.926289 72.585977 105.165078 73.484453 106.441406 74.410156 C107.615742 75.264805 108.790078 76.119453 110 77 C115.121043 80.622201 120.26243 84.172965 125.5 87.625 C132.320488 92.215713 138.966902 97.003237 145.605469 101.851562 C150.007492 105.005367 154.489219 108.004379 159 111 C162.318858 113.303366 165.63119 115.616158 168.9375 117.9375 C170.596523 119.101523 172.255547 120.265547 173.964844 121.464844 C175.626445 122.631445 177.288047 123.798047 179 125 C180.717031 126.200117 182.434062 127.400234 184.203125 128.636719 C188.089214 131.361412 191.957772 134.106308 195.8125 136.875 C203.699743 142.516038 211.671353 148.031258 219.667969 153.515625 C252.480282 176.026781 252.480282 176.026781 262.957445 184.236126 C267 187 267 187 271.585875 188.798206 C280.848354 192.96322 284.445888 196.439156 286.631535 206.540184 C287.474249 216.835212 287.226656 227.130694 287.043457 237.448242 C287.038378 241.430255 287.041232 245.412284 287.051422 249.394287 C287.056587 260.196363 286.950764 270.994841 286.825091 281.796081 C286.712568 293.086789 286.701994 304.37758 286.680634 315.668762 C286.624687 337.046236 286.476976 358.422053 286.296343 379.798797 C286.09515 404.136951 285.996181 428.475184 285.905825 452.813962 C285.717676 502.877105 285.38758 552.937977 285 603 C253.98 603 222.96 603 191 603 C192.265894 594.138742 193.593668 585.506525 195.3125 576.75 C195.748203 574.512187 196.183906 572.274375 196.632812 569.96875 C197.544271 565.322917 198.455729 560.677083 199.367188 556.03125 C207.072775 516.454625 207.072775 516.454625 202 508 C197 505 197 505 190 503 C190.78375 502.113125 191.5675 501.22625 192.375 500.3125 C205.963737 484.146589 216.006338 468.707224 216.3125 446.9375 C216.331191 446.065449 216.331191 446.065449 216.425781 441.652344 C216 437 216 437 212 432 C203.201005 430.655709 197.609044 433.819207 190 438 C188.35 438.66 186.7 439.32 185 440 C184 438 184 438 183.25 431.5625 C182.078263 424.473491 180.186465 419.372931 177 413 C177 412.34 177 411.68 177 411 C172 409 172 409 166 409 C159.9 415.2 159.9 415.2 158 419 C157.34 419 156.68 419 156 419 C155.34 420.65 154.68 422.3 154 424 C152.001052 427.793837 149.9385 431.549534 147.875 435.308594 C146 439 146 439 144 445 C137.798372 443.449593 133.886483 439.017775 129 435 C123.006137 432.003069 120.482405 431.436313 114 432 C103.839665 442.160335 107.194653 460.911504 110.464844 473.605469 C114.156861 484.174221 119.86492 493.437904 127 502 C127 502.33 127 502.66 127 503 C126.319375 503.144375 126.319375 503.144375 122.875 503.875 C115.202184 505.64565 112.589044 506.821913 109 514 C108.154528 522.827453 110.290778 531.644716 111.8125 540.3125 C112.368473 543.551863 112.92317 546.791445 113.476562 550.03125 C113.742432 551.581992 114.008301 553.132734 114.282227 554.730469 C115.153811 559.914916 115.936115 565.109363 116.6875 570.3125 C117.508267 575.989471 118.496971 581.576581 119.6875 587.1875 C121 594 121 594 121 603 C93.61 603 66.22 603 38 603 C38.66 601.68 39.32 600.36 40 599 C43 592 43 592 42.6875 586.5625 C44.571569 578.577638 48.857961 577.962881 56.027344 574.820312 C66.860742 569.856336 71.374509 560.378436 73 549 C73.104324 545.984707 73.158236 542.967478 73.177002 539.950439 C73.189837 538.147791 73.202672 536.345143 73.215897 534.487869 C73.223284 532.549255 73.23067 530.610641 73.238281 528.613281 C73.246353 526.60961 73.254425 524.605938 73.262741 522.54155 C73.276566 518.30253 73.287295 514.063498 73.295166 509.824463 C73.312387 503.354765 73.356293 496.885578 73.400391 490.416016 C73.410517 486.294275 73.419033 482.172529 73.425781 478.050781 C73.434535 477.086535 73.434535 477.086535 73.478836 472.206863 C73.442211 449.442211 73.442211 449.442211 66 442 C66 441.34 66 440.68 66 440 C65.01 439.67 64.02 439.34 63 439 C63 438.34 63 437.68 63 437 C61.68 436.34 60.36 435.68 59 435 C57.824375 434.319375 56.64875 433.63875 55.4375 432.9375 C50.212486 430.656156 45.662412 430.283121 40 430 C39.974219 428.562695 39.948437 427.125391 39.921875 425.644531 C39.287827 404.130127 35.917892 389.253634 17 377 C9.456852 373.767222 4.193322 372.874342 -3.852386 372.852829 C-5.688696 372.845674 -7.525006 372.838518 -9.416962 372.831146 C-10.424772 372.829802 -10.424772 372.829802 -15.524902 372.822998 C-17.647324 372.816427 -19.769745 372.809856 -21.956482 372.803085 C-28.999634 372.783331 -36.042765 372.771684 -43.085938 372.761719 C-45.489794 372.757643 -47.89365 372.753568 -50.37035 372.749369 C-63.09602 372.728498 -75.82168 372.714201 -88.547363 372.704834 C-101.689577 372.693774 -114.831622 372.659381 -127.973776 372.619662 C-138.079685 372.59351 -148.185553 372.585143 -158.291492 372.581553 C-163.135597 372.576682 -167.979701 372.565056 -172.823772 372.546515 C-179.609702 372.522157 -186.395192 372.523083 -193.181152 372.530029 C-195.17653 372.517219 -197.171909 372.504409 -199.227753 372.491211 C-214.344932 372.54751 -227.29211 373.425132 -239 384 C-240.65 385.32 -242.3 386.64 -244 388 C-249.749706 396.822825 -254.176025 404.875374 -253.867188 415.621094 C-253.754043 420.392011 -253.688025 424.403265 -255 429 C-261.75 430.625 -261.75 430.625 -265.859375 430.695312 C-277.092016 431.521865 -284.733431 439.754246 -290 449 C-291.752234 455.13282 -292.261777 459.184787 -292.290527 465.432617 C-292.303287 467.318576 -292.316047 469.204535 -292.329193 471.147644 C-292.331419 473.17689 -292.333644 475.206136 -292.335938 477.296875 C-292.342594 479.391702 -292.349251 481.48653 -292.35611 483.644836 C-292.366235 488.076366 -292.370927 492.507912 -292.370605 496.939453 C-292.374974 503.709892 -292.411288 510.479677 -292.449219 517.25 C-292.455088 521.557289 -292.459057 525.864582 -292.460938 530.171875 C-292.475309 532.193024 -292.48968 534.214174 -292.504486 536.29657 C-292.447433 553.900025 -289.475535 566.682977 -274 577 C-271.353021 578.051006 -268.68811 579.059162 -266 580 C-265.34 580.33 -264.68 580.66 -264 581 C-263.948438 582.082813 -263.948438 582.082813 -263.6875 587.5625 C-263 595 -263 595 -258 603 C-274.83 603 -291.66 603 -309 603 C-309.254439 549.680917 -309.450838 496.361979 -309.569934 443.042412 C-309.626697 418.286203 -309.704111 393.530377 -309.829834 368.774414 C-309.939339 347.20168 -310.010409 325.629224 -310.034973 304.05622 C-310.049337 292.629186 -310.083184 281.202948 -310.163031 269.776169 C-310.237536 259.026967 -310.260758 248.278889 -310.244184 237.529453 C-310.247218 233.578761 -310.269192 229.628032 -310.31126 225.677563 C-310.365804 220.292722 -310.352906 214.912156 -310.3228 209.527222 C-310.33882 208.741229 -310.33882 208.741229 -310.419894 204.763628 C-310.296896 196.653498 -309.776914 193.710072 -303.674649 188.13282 C-302.738332 187.615905 -302.738332 187.615905 -298 185 C-296.641328 184.124727 -295.282656 183.249453 -293.882812 182.347656 C-292.642734 181.593555 -291.402656 180.839453 -290.125 180.0625 C-282.909455 175.60804 -275.951377 170.859215 -269 166 C-265.535984 163.679763 -262.071122 161.360753 -258.597656 159.054688 C-253.835346 155.890604 -249.082042 152.713171 -244.328369 149.536133 C-233.405336 142.239446 -222.449672 135.002502 -211.402344 127.894531 C-206.531252 124.6918 -201.771916 121.348454 -197 118 C-193.736142 115.802107 -190.465097 113.614853 -187.1875 111.4375 C-179.806015 106.53043 -172.430998 101.61405 -165.0625 96.6875 C-159.239596 92.802673 -153.401443 88.951875 -147.5 85.1875 C-142.101305 81.709494 -136.808468 78.124166 -131.542969 74.449219 C-122.072225 67.902188 -112.468107 61.548343 -102.75 55.375 C-98.097502 52.407027 -93.591224 49.303789 -89.125 46.0625 C-82.842581 41.514621 -76.340749 37.431219 -69.738281 33.367188 C-66.578527 31.36634 -63.524655 29.199749 -60.5 27 C-54.764397 22.828653 -48.855231 19.121284 -42.824219 15.398438 C-36.676591 11.542826 -30.802779 7.352084 -25 3 C-24.34 3 -23.68 3 -23 3 C-23 2.34 -23 1.68 -23 1 C-14.990717 -3.004642 -8.358777 -3.343511 0 0 Z " fill="#F9DA94" transform="translate(525,181)"/>
      <path d="M0 0 C220.44 0 440.88 0 668 0 C668 30 668 30 665 33 C660.386093 33.376047 660.386093 33.376047 654.300537 33.377523 C651.990406 33.385347 649.680275 33.39317 647.30014 33.40123 C644.735117 33.394538 642.170095 33.387846 639.527344 33.380951 C636.796273 33.384404 634.065203 33.389166 631.334137 33.395133 C623.798827 33.407719 616.263631 33.401438 608.728321 33.392174 C600.613713 33.385415 592.499125 33.395849 584.384521 33.404114 C568.475955 33.417487 552.56743 33.414557 536.658862 33.405876 C523.735136 33.399114 510.811422 33.398176 497.887695 33.401447 C496.969687 33.401677 496.969687 33.401677 492.324009 33.40284 C488.594737 33.403799 484.865465 33.404772 481.136192 33.405758 C446.127364 33.414323 411.118558 33.404461 376.109734 33.388357 C346.03929 33.374953 315.968881 33.377281 285.898438 33.391113 C251.018976 33.40715 216.139535 33.413498 181.260071 33.404276 C177.544149 33.403321 173.828227 33.402378 170.112305 33.401447 C168.283771 33.400984 166.455237 33.400522 164.571293 33.400045 C151.655922 33.397449 138.740564 33.401838 125.825195 33.408886 C110.095968 33.41728 94.366785 33.415064 78.637563 33.399044 C70.604938 33.391133 62.572389 33.388116 54.539764 33.397991 C47.197196 33.406882 39.854773 33.402099 32.512218 33.386059 C28.574765 33.38108 24.637302 33.390957 20.69986 33.40123 C18.389729 33.393407 16.079598 33.385584 13.699463 33.377523 C11.691229 33.377036 9.682996 33.376549 7.613907 33.376047 C3 33 3 33 0 30 C0 20.1 0 10.2 0 0 Z " fill="#F5D895" transform="translate(179,810)"/>
      <path d="M0 0 C1.812628 -0.009905 3.625257 -0.019809 5.492813 -0.030014 C6.482254 -0.027763 6.482254 -0.027763 11.489426 -0.016373 C13.581156 -0.023236 15.672887 -0.030099 17.828003 -0.03717 C24.754519 -0.055498 31.68081 -0.051592 38.607346 -0.045914 C43.416159 -0.050473 48.224971 -0.055778 53.033783 -0.061798 C63.118959 -0.070741 73.204056 -0.068293 83.28923 -0.058365 C96.218916 -0.046878 109.148328 -0.067078 122.077977 -0.096282 C132.011268 -0.114621 141.944494 -0.114356 151.877798 -0.108644 C156.645086 -0.108491 161.412379 -0.11456 166.179651 -0.126936 C172.844282 -0.141798 179.508405 -0.131201 186.173019 -0.114029 C188.145829 -0.123697 190.118638 -0.133365 192.15123 -0.143326 C206.719886 -0.064653 216.453161 1.422489 226.025314 13.38768 C228.343951 19.184273 228.57053 23.716063 228.775314 29.95018 C228.873283 31.993344 228.971252 34.036508 229.072189 36.141586 C228.025314 41.38768 228.025314 41.38768 223.279221 43.875961 C221.545432 44.374828 219.811642 44.873696 218.025314 45.38768 C203.813511 56.092675 202.433216 68.492864 201.025314 85.38768 C132.385314 85.38768 63.745314 85.38768 -6.974686 85.38768 C-7.304686 80.10768 -7.634686 74.82768 -7.974686 69.38768 C-9.756005 61.231112 -12.770165 53.190694 -19.974686 48.38768 C-19.974686 47.72768 -19.974686 47.06768 -19.974686 46.38768 C-21.624686 45.72768 -23.274686 45.06768 -24.974686 44.38768 C-29.974686 42.38768 -29.974686 42.38768 -30.673904 37.985336 C-30.651267 27.292783 -30.633261 19.310172 -23.974686 10.38768 C-23.314686 10.38768 -22.654686 10.38768 -21.974686 10.38768 C-21.974686 9.72768 -21.974686 9.06768 -21.974686 8.38768 C-14.581774 2.226921 -9.421266 0.01455 0 0 Z " fill="#FAD278" transform="translate(317.9746856689453,570.6123199462891)"/>
      <path d="M0 0 C7.663285 6.130628 6.132262 10.878116 6.097656 20.195312 C6.096241 21.613029 6.094826 23.030746 6.093369 24.491425 C6.087755 29.035971 6.0752 33.580469 6.0625 38.125 C6.057487 41.199218 6.052924 44.273437 6.048828 47.347656 C6.037781 54.898456 6.020506 62.44922 6 70 C7.022871 70.072832 7.022871 70.072832 12.199219 70.441406 C17.460921 70.873585 22.016271 71.338757 27 73 C27 73.66 27 74.32 27 75 C29.31 75.33 31.62 75.66 34 76 C62.329492 87.796601 84.239005 108.016496 90 139 C91.592673 155.821375 92.22434 172.733444 92.4375 189.625 C92.471821 191.070603 92.506143 192.516206 92.541504 194.005615 C92.575477 202.147922 92.415128 204.501846 87 211 C78.587525 212.156715 77.094791 211.094791 71 205 C70.839003 200.44824 70.747996 195.893995 70.683594 191.339844 C70.662813 189.965104 70.642032 188.590364 70.620621 187.173965 C70.554987 182.761863 70.496176 178.3497 70.4375 173.9375 C70.394328 170.955072 70.350714 167.97265 70.306641 164.990234 C70.198456 157.660219 70.099485 150.33016 70 143 C57.46 143 44.92 143 32 143 C32 148.61 32 154.22 32 160 C29.203069 168.915219 24.837174 175.727456 19 183 C18.34 183 17.68 183 17 183 C17 183.66 17 184.32 17 185 C3.990351 193.49241 -7.769143 196.884643 -23 192.125 C-24.32 191.42375 -25.64 190.7225 -27 190 C-27 189.34 -27 188.68 -27 188 C-28.98 187.34 -30.96 186.68 -33 186 C-46.422464 171.88327 -49 162.494639 -49 143 C-62.86 143 -76.72 143 -91 143 C-91.025781 147.250039 -91.051562 151.500078 -91.078125 155.878906 C-91.116556 160.002752 -91.161713 164.126474 -91.20752 168.250244 C-91.235716 171.112488 -91.256937 173.97481 -91.270996 176.837158 C-91.292443 180.955645 -91.339107 185.073199 -91.390625 189.191406 C-91.401099 190.429913 -91.401099 190.429913 -91.454102 196.69751 C-91.958971 202.526313 -92.403993 205.483752 -96 210 C-100.235713 211.411904 -103.557489 211.420238 -108 211 C-113.343302 204.588038 -113.624919 203.836365 -113.558594 196.070312 C-113.553276 194.316382 -113.547959 192.562451 -113.54248 190.755371 C-113.525159 189.82636 -113.525159 189.82636 -113.4375 185.125 C-113.415747 183.229595 -113.393994 181.334189 -113.371582 179.381348 C-112.699995 135.014866 -101.686356 103.655379 -60.75 80.75 C-53.058054 76.781493 -45.327041 74.33983 -37 72 C-35.750898 71.646797 -34.501797 71.293594 -33.214844 70.929688 C-28.159537 69.814615 -23.154081 69.434933 -18 69 C-17.985417 67.14802 -17.970835 65.29604 -17.955811 63.387939 C-17.894778 56.52021 -17.820628 49.652884 -17.737549 42.7854 C-17.704284 39.812473 -17.676257 36.839482 -17.653564 33.866455 C-17.620049 29.594289 -17.567732 25.322704 -17.511719 21.050781 C-17.485535 18.479504 -17.459351 15.908228 -17.432373 13.259033 C-16.542022 0.370308 -11.72141 -0.710389 0 0 Z " fill="#080605" transform="translate(499,253)"/>
      <path d="M0 0 C41.91 0 83.82 0 127 0 C127 46.2 127 92.4 127 140 C85.09 140 43.18 140 0 140 C0 93.8 0 47.6 0 0 Z " fill="#0D0B0A" transform="translate(611,442)"/>
      <path d="M0 0 C6.044663 5.053734 7.186315 8.726686 7.165527 16.310791 C7.169183 17.959225 7.172839 19.607659 7.176605 21.306046 C7.16731 23.083215 7.158015 24.860384 7.148438 26.691406 C7.160946 30.439455 7.173983 34.187502 7.1875 37.935547 C7.19144 43.856751 7.187432 49.777786 7.172852 55.698975 C7.164318 61.405045 7.185902 67.110399 7.210938 72.816406 C7.197594 74.5956 7.18425 76.374793 7.170502 78.207901 C7.180462 79.853183 7.190422 81.498465 7.200684 83.193604 C7.198297 84.644126 7.19591 86.094649 7.193451 87.589127 C7.8125 91.1875 7.8125 91.1875 12.8125 95.1875 C17.123469 95.690865 17.123469 95.690865 22.397751 95.695435 C24.395888 95.706714 26.394026 95.717993 28.452713 95.729614 C30.64772 95.721517 32.842726 95.71342 35.104248 95.705078 C37.413362 95.712087 39.722476 95.719097 42.101562 95.726318 C49.759236 95.743971 57.416542 95.732249 65.074219 95.71875 C70.375885 95.721442 75.677539 95.725316 80.979202 95.730347 C92.098562 95.737627 103.217815 95.728025 114.337158 95.708984 C127.208465 95.687199 140.079518 95.694278 152.950819 95.71629 C165.317348 95.736595 177.683764 95.73449 190.050303 95.722763 C195.321013 95.720085 200.59173 95.723402 205.862432 95.732681 C213.211444 95.74278 220.559961 95.727437 227.908936 95.705078 C230.110015 95.713175 232.311094 95.721272 234.578873 95.729614 C236.568551 95.718335 238.558229 95.707056 240.6082 95.695435 C241.477891 95.694681 241.477891 95.694681 245.879054 95.690865 C249.8125 95.1875 249.8125 95.1875 251.8125 91.1875 C252.032619 85.36463 252.138014 79.585918 252.15625 73.761719 C252.163561 72.896106 252.163561 72.896106 252.200562 68.515579 C252.24716 62.968743 252.281301 57.421943 252.3125 51.875 C252.353608 44.587106 252.407296 37.299466 252.46875 30.011719 C252.474027 28.332367 252.479304 26.653016 252.484741 24.922775 C252.594631 12.07609 252.963521 3.296887 264.8125 -3.8125 C274.985995 -6.355874 281.899796 -4.160123 290.8125 1.1875 C294.721991 6.547376 295.313513 10.590924 295.314209 17.148682 C295.32359 18.930654 295.332971 20.712627 295.342636 22.548599 C295.337019 23.505444 295.337019 23.505444 295.308594 28.347656 C295.310049 30.321166 295.311504 32.294675 295.313004 34.327988 C295.311344 38.498052 295.29978 42.668122 295.279053 46.838135 C295.250095 53.228942 295.258446 59.618921 295.271484 66.009766 C295.265247 70.0599 295.256857 74.110031 295.246094 78.160156 C295.249029 80.075869 295.251965 81.991582 295.25499 83.965347 C295.242305 85.744168 295.229621 87.522989 295.216553 89.355713 C295.21115 90.920116 295.205747 92.484519 295.20018 94.096329 C294.303977 103.553926 288.918385 108.134557 280.8125 112.1875 C276.801329 112.467868 272.776602 112.56638 268.755646 112.568451 C266.234713 112.57691 263.71378 112.58537 261.116455 112.594086 C258.317382 112.588253 255.51831 112.582108 252.719238 112.575684 C249.775704 112.579748 246.832171 112.585089 243.888641 112.591614 C235.888677 112.605309 227.888828 112.599979 219.888861 112.590477 C211.521841 112.58289 203.154832 112.589923 194.787811 112.594635 C180.733685 112.600096 166.679607 112.592892 152.625488 112.578613 C136.373939 112.562293 120.122502 112.56757 103.870955 112.584092 C89.924317 112.597705 75.977714 112.599628 62.031072 112.591776 C53.698605 112.587098 45.36619 112.586481 37.033726 112.596386 C29.198441 112.605049 21.363303 112.599045 13.528034 112.581703 C10.651365 112.577735 7.774683 112.578879 4.898018 112.585491 C0.973124 112.593682 -2.951798 112.581592 -6.876678 112.568451 C-9.073814 112.56732 -11.27095 112.566189 -13.534666 112.565023 C-23.328761 111.910927 -29.557451 109.447599 -34.1875 100.1875 C-34.392162 97.166171 -34.474495 94.136101 -34.493896 91.10791 C-34.509884 89.225607 -34.525871 87.343304 -34.542343 85.403961 C-34.545024 84.38469 -34.545024 84.38469 -34.558594 79.226562 C-34.567622 77.137828 -34.576651 75.049094 -34.585953 72.897064 C-34.600479 68.473708 -34.609348 64.050331 -34.613037 59.626953 C-34.624939 52.84729 -34.674116 46.068534 -34.724609 39.289062 C-34.734072 34.9974 -34.741308 30.705732 -34.746094 26.414062 C-34.765626 24.379569 -34.785158 22.345076 -34.805283 20.248932 C-34.799205 18.360324 -34.793127 16.471717 -34.786865 14.525879 C-34.791936 12.863603 -34.797007 11.201326 -34.802231 9.488678 C-33.914618 3.278184 -30.700571 0.178822 -25.5625 -3.1875 C-16.379074 -6.598487 -8.104436 -5.443278 0 0 Z " fill="#F8D889" transform="translate(285.1875,631.8125)"/>
      <path d="M0 0 C69.3 0 138.6 0 210 0 C210 12.87 210 25.74 210 39 C140.7 39 71.4 39 0 39 C0 26.13 0 13.26 0 0 Z " fill="#F7D278" transform="translate(310,673)"/>
      <path d="M0 0 C41.91 0 83.82 0 127 0 C127 46.2 127 92.4 127 140 C85.09 140 43.18 140 0 140 C0 93.8 0 47.6 0 0 Z M13 11 C13 49.94 13 88.88 13 129 C45.67 129 78.34 129 112 129 C112 90.06 112 51.12 112 11 C79.33 11 46.66 11 13 11 Z " fill="#0B0907" transform="translate(611,442)"/>
      <path d="M0 0 C25.74 0 51.48 0 78 0 C78 32.34 78 64.68 78 98 C74 97 74 97 72 96 C72 95.34 72 94.68 72 94 C70.35 93.34 68.7 92.68 67 92 C64.319084 90.218361 61.677435 88.377141 59.0625 86.5 C58.307109 85.959883 58.307109 85.959883 54.484375 83.226562 C53.004531 82.161797 51.524688 81.097031 50 80 C47.604558 78.291118 45.208757 76.582739 42.8125 74.875 C39.365431 72.40999 35.920057 69.942657 32.476562 67.472656 C10.963934 52.062396 10.963934 52.062396 4.168213 48.38623 C-1.402988 43.860221 -1.057899 41.610682 -0.878906 34.570312 C-0.856428 32.758052 -0.83395 30.945791 -0.810791 29.078613 C-0.728855 26.783921 -0.646919 24.489229 -0.5625 22.125 C-0.469687 18.474375 -0.469687 18.474375 0 0 Z " fill="#F6E2B8" transform="translate(696,222)"/>
      <path d="M0 0 C72.93 0 145.86 0 221 0 C221.33 3.63 221.66 7.26 222 11 C224 15.5 224 15.5 226 19 C226.33 19.99 226.66 20.98 227 22 C149.78 22 72.56 22 -7 22 C-5.68 19.69 -4.36 17.38 -3 15 C-1 11 -1 11 0 0 Z " fill="#F4D17E" transform="translate(304,762)"/>
      <path d="M0 0 C1.414988 -0.003142 2.829976 -0.006284 4.287842 -0.009521 C17.052321 0.134763 28.704422 2.401474 40.8125 6.4375 C40.8125 7.0975 40.8125 7.7575 40.8125 8.4375 C42.7925 9.0975 44.7725 9.7575 46.8125 10.4375 C70.615466 24.452331 70.615466 24.452331 72.8125 35.4375 C25.2925 35.4375 -22.2275 35.4375 -71.1875 35.4375 C-71.1875 34.4475 -71.1875 33.4575 -71.1875 32.4375 C-70.5275 32.4375 -69.8675 32.4375 -69.1875 32.4375 C-68.5275 31.1175 -67.8675 29.7975 -67.1875 28.4375 C-55.426584 15.072823 -40.073853 7.238522 -23.1875 2.4375 C-22.049258 2.079141 -20.911016 1.720781 -19.738281 1.351562 C-13.178534 0.033982 -6.664145 0.012099 0 0 Z " fill="#F2CF7D" transform="translate(489.1875,340.5625)"/>
      <path d="M0 0 C19.47 0 38.94 0 59 0 C57.89023 7.109464 56.765598 14.16682 55.507812 21.242188 C54.300894 28.372086 53.632552 35.421269 53.117188 42.632812 C50.392247 71.798786 50.392247 71.798786 42.208008 75.900391 C31.601002 77.860655 21.457801 76.143628 11 74 C0 11.441341 0 11.441341 0 0 Z " fill="#F7E3B9" transform="translate(653,699)"/>
      <path d="M0 0 C32.67 0 65.34 0 99 0 C99 38.94 99 77.88 99 118 C66.33 118 33.66 118 0 118 C0 79.06 0 40.12 0 0 Z M5 6 C5 40.98 5 75.96 5 112 C34.37 112 63.74 112 94 112 C94 77.02 94 42.04 94 6 C64.63 6 35.26 6 5 6 Z " fill="#DBD3B9" transform="translate(624,453)"/>
      <path d="M0 0 C13.2 0 26.4 0 40 0 C40 21.8 40 21.8 31 29 C24.32831 32.335845 17.630439 31.864287 10.625 29.5625 C-0.705242 21.553191 0 13.278791 0 0 Z " fill="#F5D17C" transform="translate(470,396)"/>
      <path d="M0 0 C-2.740083 19.180578 -15.260467 35.008516 -30 47 C-30.495 47.165 -30.495 47.165 -33 48 C-31.930887 32.230591 -20.114546 0 0 0 Z " fill="#E9D9B1" transform="translate(725,633)"/>
      <path d="M0 0 C5.897714 2.948857 10.052842 6.737122 14 12 C14 12.66 14 13.32 14 14 C14.66 14 15.32 14 16 14 C21.76198 23.537071 25.999292 35.807924 25 47 C11.617429 41.646972 3.348168 23.392673 0 10 C-0.03968 6.666903 -0.043856 3.333045 0 0 Z " fill="#EDDCB6" transform="translate(649,634)"/>
      <path d="M0 0 C0.567669 15.75282 0.567669 15.75282 -4 24 C-4.350625 24.752813 -4.350625 24.752813 -6.125 28.5625 C-6.74375 29.696875 -7.3625 30.83125 -8 32 C-8.66 32 -9.32 32 -10 32 C-11.007874 0 -11.007874 0 0 0 Z " fill="#DED4B1" transform="translate(693,615)"/>
      <path d="M0 0 C3.63 0 7.26 0 11 0 C10.577652 6.229639 10.099435 7.875707 6 13 C1.401728 11.467243 1.386182 8.422582 0 4 C0 2.68 0 1.36 0 0 Z " fill="#E9D8A7" transform="translate(542,763)"/>
  </g>

  <!-- WORDMARK — AURA LIVING
       64pt (slightly smaller for better icon-text ratio)
       ExtraBold, letter-spacing 10, perfectly centered -->
  <text x="400" y="770"
        font-family="Avenir Next Heavy, Montserrat ExtraBold, Gilroy ExtraBold, Helvetica, Arial, sans-serif"
        font-size="64" font-weight="800"
        fill="#2E2E2E"
        text-anchor="middle"
        letter-spacing="10">AURA LIVING</text>

  <!-- Mustard accent rule — perfectly aligned with wordmark width -->
  <line x1="270" y1="800" x2="530" y2="800"
        stroke="#F2C66D" stroke-width="2.5" stroke-linecap="round"/>

  <!-- Tagline — larger (15pt), better hierarchy, same dark color -->
  <text x="400" y="838"
        font-family="Avenir Next, Montserrat, Helvetica, Arial, sans-serif"
        font-size="15" font-weight="600"
        fill="#2E2E2E"
        text-anchor="middle"
        letter-spacing="6">CONSIDERED OBJECTS FOR THE CONSIDERED HOME</text>
</svg>
