<svg xmlns="http://www.w3.org/2000/svg" viewBox="0 0 240 240" width="240" height="240">
  <!-- House mark only (favicon / app icon / social avatar) -->
  <g transform="translate(120, 115)" stroke-linejoin="round" stroke-linecap="round">
    <path d="M -80 80 L -80 -12 L 4 -72 L 4 80 Z" fill="#F6D58A" stroke="#3A3A3A" stroke-width="2.5"/>
    <path d="M 4 -72 L 76 -16 L 76 80 L 4 80 Z" fill="#DCC9BC" stroke="#3A3A3A" stroke-width="2.5"/>
    <line x1="4" y1="-72" x2="4" y2="80" stroke="#3A3A3A" stroke-width="2"/>

    <rect x="-40" y="68" width="80" height="5" rx="2.5" fill="#B8A89B" stroke="#3A3A3A" stroke-width="2"/>
    <rect x="-60" y="-4" width="22" height="22" rx="2" fill="#F7F5F2" stroke="#3A3A3A" stroke-width="2"/>
    <line x1="-57" y1="8" x2="-41" y2="8" stroke="#3A3A3A" stroke-width="1.5"/>

    <path d="M 56 70 Q 60 0 24 -6" fill="none" stroke="#3A3A3A" stroke-width="2.5"/>
    <path d="M 18 -6 Q 18 -13 24 -13 Q 30 -13 30 -6 Z" fill="#F7F5F2" stroke="#3A3A3A" stroke-width="2"/>
    <ellipse cx="56" cy="70" rx="6" ry="1.5" fill="#3A3A3A" stroke="none"/>

    <rect x="-28" y="20" width="56" height="18" rx="6" fill="#F7F5F2" stroke="#3A3A3A" stroke-width="2.5"/>
    <line x1="-10" y1="20" x2="-10" y2="38" stroke="#3A3A3A" stroke-width="1.5"/>
    <line x1="10" y1="20" x2="10" y2="38" stroke="#3A3A3A" stroke-width="1.5"/>
    <rect x="-30" y="38" width="60" height="18" rx="6" fill="#F7F5F2" stroke="#3A3A3A" stroke-width="2.5"/>
    <line x1="0" y1="38" x2="0" y2="56" stroke="#3A3A3A" stroke-width="1.5"/>
    <rect x="-37" y="26" width="9" height="30" rx="4" fill="#F7F5F2" stroke="#3A3A3A" stroke-width="2.5"/>
    <rect x="28" y="26" width="9" height="30" rx="4" fill="#F7F5F2" stroke="#3A3A3A" stroke-width="2.5"/>

    <rect x="-66" y="48" width="16" height="22" rx="2" fill="#B8A89B" stroke="#3A3A3A" stroke-width="2"/>
    <line x1="-62" y1="50" x2="-62" y2="68" stroke="#3A3A3A" stroke-width="1"/>
    <line x1="-58" y1="50" x2="-58" y2="68" stroke="#3A3A3A" stroke-width="1"/>
    <line x1="-54" y1="50" x2="-54" y2="68" stroke="#3A3A3A" stroke-width="1"/>
    <rect x="-68" y="46" width="20" height="3" rx="1" fill="#B8A89B" stroke="#3A3A3A" stroke-width="2"/>
    <ellipse cx="-62" cy="40" rx="5" ry="8" fill="#8FBC8F" stroke="#3A3A3A" stroke-width="1.5"/>
    <ellipse cx="-56" cy="37" rx="5" ry="10" fill="#8FBC8F" stroke="#3A3A3A" stroke-width="1.5"/>
    <ellipse cx="-68" cy="37" rx="4" ry="7" fill="#8FBC8F" stroke="#3A3A3A" stroke-width="1.5"/>
    <ellipse cx="-59" cy="32" rx="4" ry="8" fill="#8FBC8F" stroke="#3A3A3A" stroke-width="1.5"/>
  </g>
</svg>
