<svg xmlns="http://www.w3.org/2000/svg" viewBox="0 0 600 520" width="600" height="520">
  <!-- AURA LIVING v9 — Transparent (M-shaped roof) -->
  <g transform="translate(300, 220)" stroke="#000000" stroke-linejoin="round" stroke-linecap="round">
    <path d="M -70 100 L -70 -12 L -35 -65 L 0 -20 L 0 100 Z" fill="#F5E6A3" stroke="#000000" stroke-width="2"/>
    <path d="M 0 -20 L 35 -48 L 70 -12 L 70 100 L 0 100 Z" fill="#C9A87C" stroke="#000000" stroke-width="2"/>
    <line x1="0" y1="-20" x2="0" y2="100" stroke="#000000" stroke-width="1.5"/>
    <line x1="-70" y1="100" x2="70" y2="100" stroke="#000000" stroke-width="1.5"/>

    <rect x="-55" y="2" width="24" height="18" fill="#FFFFFF" stroke="#000000" stroke-width="1.5"/>

    <path d="M 38 100 Q 48 50 40 5 Q 36 -10 20 -8" fill="none" stroke="#000000" stroke-width="1.8" stroke-linecap="round"/>
    <path d="M 13 -8 Q 13 -17 20 -17 Q 27 -17 27 -8 Z" fill="#FFFFFF" stroke="#000000" stroke-width="1.5"/>
    <ellipse cx="38" cy="100" rx="6" ry="2" fill="#000000" stroke="none"/>

    <rect x="-26" y="40" width="52" height="18" rx="7" fill="#FFFFFF" stroke="#000000" stroke-width="1.8"/>
    <rect x="-28" y="56" width="56" height="20" rx="6" fill="#FFFFFF" stroke="#000000" stroke-width="1.8"/>
    <rect x="-34" y="48" width="9" height="28" rx="4" fill="#FFFFFF" stroke="#000000" stroke-width="1.8"/>
    <rect x="25" y="48" width="9" height="28" rx="4" fill="#FFFFFF" stroke="#000000" stroke-width="1.8"/>

    <rect x="-56" y="72" width="12" height="28" fill="#A0826D" stroke="#000000" stroke-width="1.5"/>
    <line x1="-52" y1="74" x2="-52" y2="98" stroke="#000000" stroke-width="0.8"/>
    <line x1="-48" y1="74" x2="-48" y2="98" stroke="#000000" stroke-width="0.8"/>
    <rect x="-58" y="70" width="16" height="3" fill="#A0826D" stroke="#000000" stroke-width="1.5"/>
    <ellipse cx="-52" cy="62" rx="3" ry="8" fill="#8FBC8F" stroke="#000000" stroke-width="1.2" transform="rotate(-15 -52 62)"/>
    <ellipse cx="-48" cy="60" rx="3" ry="9" fill="#8FBC8F" stroke="#000000" stroke-width="1.2" transform="rotate(10 -48 60)"/>
    <ellipse cx="-54" cy="58" rx="2.5" ry="7" fill="#8FBC8F" stroke="#000000" stroke-width="1.2" transform="rotate(-25 -54 58)"/>
  </g>

  <text x="300" y="410" font-family="Montserrat, Poppins, Helvetica, Arial, sans-serif"
        font-size="46" font-weight="700" fill="#000000"
        text-anchor="middle" letter-spacing="0">AURA LIVING</text>
  <text x="300" y="445" font-family="Montserrat, Poppins, Helvetica, Arial, sans-serif"
        font-size="14" font-weight="400" fill="#000000"
        text-anchor="middle" letter-spacing="5">SINCE 2026</text>
</svg>
