<svg xmlns="http://www.w3.org/2000/svg" viewBox="0 0 240 240" width="240" height="240">
  <!-- House mark only v7 (favicon) — single pentagon, simple shapes -->
  <g transform="translate(120, 120)" stroke="#000000" stroke-linejoin="round" stroke-linecap="round">
    <path d="M -52 80 L -52 -10 L -8 -56 L -8 80 Z" fill="#F5E6A3" stroke="#000000" stroke-width="2.5"/>
    <path d="M -8 -56 L 52 -10 L 52 80 L -8 80 Z" fill="#D4B896" stroke="#000000" stroke-width="2.5"/>
    <line x1="-8" y1="-56" x2="-8" y2="80" stroke="#000000" stroke-width="2"/>

    <rect x="-40" y="0" width="16" height="16" fill="#FFFFFF" stroke="#000000" stroke-width="2"/>

    <path d="M 32 80 Q 40 40 34 4 Q 30 -8 18 -6" fill="none" stroke="#000000" stroke-width="2.2" stroke-linecap="round"/>
    <path d="M 13 -6 Q 13 -13 18 -13 Q 23 -13 23 -6 Z" fill="#FFFFFF" stroke="#000000" stroke-width="2"/>
    <ellipse cx="32" cy="80" rx="5" ry="1.5" fill="#000000" stroke="none"/>

    <rect x="-22" y="32" width="44" height="14" rx="6" fill="#FFFFFF" stroke="#000000" stroke-width="2.2"/>
    <rect x="-24" y="45" width="48" height="16" rx="5" fill="#FFFFFF" stroke="#000000" stroke-width="2.2"/>
    <rect x="-29" y="38" width="7" height="23" rx="3" fill="#FFFFFF" stroke="#000000" stroke-width="2.2"/>
    <rect x="22" y="38" width="7" height="23" rx="3" fill="#FFFFFF" stroke="#000000" stroke-width="2.2"/>

    <rect x="-46" y="58" width="10" height="22" fill="#666666" stroke="#000000" stroke-width="2"/>
    <rect x="-48" y="56" width="13" height="2.5" fill="#666666" stroke="#000000" stroke-width="2"/>
    <ellipse cx="-43" cy="50" rx="2.5" ry="6" fill="#8FBC8F" stroke="#000000" stroke-width="1.5" transform="rotate(-15 -43 50)"/>
    <ellipse cx="-40" cy="48" rx="2.5" ry="7" fill="#8FBC8F" stroke="#000000" stroke-width="1.5" transform="rotate(10 -40 48)"/>
    <ellipse cx="-45" cy="47" rx="2" ry="5.5" fill="#8FBC8F" stroke="#000000" stroke-width="1.5" transform="rotate(-25 -45 47)"/>
  </g>
</svg>
