<svg xmlns="http://www.w3.org/2000/svg" viewBox="0 0 240 240" width="240" height="240">
  <!-- House mark only v10 (favicon) -->
  <g transform="translate(120, 120)" stroke="#2A2A2A" stroke-linejoin="round" stroke-linecap="round">
    <path d="M -56 80 L -56 -8 L 6 -44 L 6 80 Z" fill="#F0D090" stroke="#2A2A2A" stroke-width="2"/>
    <path d="M 6 -44 L 56 -8 L 56 80 L 6 80 Z" fill="#DCC9BF" stroke="#2A2A2A" stroke-width="2"/>
    <line x1="6" y1="-44" x2="6" y2="80" stroke="#2A2A2A" stroke-width="1.5"/>

    <rect x="-40" y="0" width="18" height="13" fill="none" stroke="#2A2A2A" stroke-width="1.5"/>

    <path d="M 36 80 Q 42 40 35 8 Q 32 -4 20 -2" fill="none" stroke="#2A2A2A" stroke-width="2" stroke-linecap="round"/>
    <path d="M 15 -2 Q 15 -10 20 -10 Q 25 -10 25 -2 Z" fill="none" stroke="#2A2A2A" stroke-width="1.5"/>
    <ellipse cx="36" cy="80" rx="4" ry="1.5" fill="#2A2A2A" stroke="none"/>

    <rect x="-20" y="34" width="40" height="13" rx="5" fill="none" stroke="#2A2A2A" stroke-width="2"/>
    <rect x="-22" y="45" width="44" height="14" rx="4" fill="none" stroke="#2A2A2A" stroke-width="2"/>
    <rect x="-26" y="38" width="6" height="21" rx="2" fill="none" stroke="#2A2A2A" stroke-width="2"/>
    <rect x="19" y="38" width="6" height="21" rx="2" fill="none" stroke="#2A2A2A" stroke-width="2"/>

    <rect x="-44" y="56" width="8" height="24" fill="#C0C0C0" stroke="#2A2A2A" stroke-width="1.5"/>
    <rect x="-46" y="54" width="11" height="2.5" fill="#C0C0C0" stroke="#2A2A2A" stroke-width="1.5"/>
    <ellipse cx="-40" cy="50" rx="2.5" ry="6" fill="#8FBC8F" stroke="#2A2A2A" stroke-width="1.2"/>
    <ellipse cx="-38" cy="48" rx="2.5" ry="7" fill="#8FBC8F" stroke="#2A2A2A" stroke-width="1.2"/>
  </g>
</svg>
