<svg xmlns="http://www.w3.org/2000/svg" viewBox="0 0 240 240" width="240" height="240">
  <!-- House mark only (for favicon / app icon / profile avatar) -->
  <g transform="translate(120, 110)" stroke="#1A1714" stroke-width="3" stroke-linejoin="round" stroke-linecap="round" fill="none">
    <path d="M -90 -8 L -45 -60 L 0 -8" fill="none"/>
    <path d="M 0 -8 L 45 -60 L 90 -8" fill="none"/>
    <line x1="-45" y1="-60" x2="45" y2="-60"/>

    <path d="M -90 -8 L -90 65 L 0 65 L 0 -8 L -45 -60 Z" fill="#F2D58E" stroke="#1A1714" stroke-width="3"/>
    <path d="M 0 -8 L 0 65 L 90 65 L 90 -8 L 45 -60 Z" fill="#D4B896" stroke="#1A1714" stroke-width="3"/>

    <rect x="-72" y="4" width="18" height="22" fill="#D4B896" stroke="#1A1714" stroke-width="2"/>
    <line x1="-69" y1="8" x2="-57" y2="8" stroke="#1A1714" stroke-width="1"/>
    <line x1="-69" y1="16" x2="-57" y2="16" stroke="#1A1714" stroke-width="1"/>

    <path d="M 64 65 Q 64 25 76 25" fill="none" stroke="#1A1714" stroke-width="2"/>
    <path d="M 70 25 L 82 25 L 84 17 L 68 17 Z" fill="#FAF6EE" stroke="#1A1714" stroke-width="2"/>
    <ellipse cx="64" cy="65" rx="6" ry="1.5" fill="#1A1714" stroke="none"/>

    <path d="M -76 65 L -72 53 L -60 53 L -56 65 Z" fill="#C9A87C" stroke="#1A1714" stroke-width="2"/>
    <path d="M -66 53 Q -71 41 -68 33" fill="none" stroke="#1A1714" stroke-width="2"/>
    <path d="M -66 53 Q -62 39 -56 35" fill="none" stroke="#1A1714" stroke-width="2"/>
    <path d="M -66 53 Q -66 41 -66 31" fill="none" stroke="#1A1714" stroke-width="2"/>

    <rect x="-24" y="28" width="48" height="16" rx="2" fill="#FAF6EE" stroke="#1A1714" stroke-width="2"/>
    <line x1="0" y1="28" x2="0" y2="44" stroke="#1A1714" stroke-width="1.5"/>
    <rect x="-28" y="44" width="56" height="16" rx="2" fill="#FAF6EE" stroke="#1A1714" stroke-width="2"/>
    <rect x="-32" y="36" width="8" height="24" rx="1" fill="#FAF6EE" stroke="#1A1714" stroke-width="2"/>
    <rect x="24" y="36" width="8" height="24" rx="1" fill="#FAF6EE" stroke="#1A1714" stroke-width="2"/>
    <line x1="-26" y1="60" x2="-26" y2="65" stroke="#1A1714" stroke-width="2"/>
    <line x1="26" y1="60" x2="26" y2="65" stroke="#1A1714" stroke-width="2"/>

    <line x1="-92" y1="65" x2="92" y2="65" stroke="#1A1714" stroke-width="3"/>
  </g>
</svg>
