<svg xmlns="http://www.w3.org/2000/svg" viewBox="0 0 600 520" width="600" height="520">
  <!-- AURA LIVING v10 — Transparent -->
  <g transform="translate(300, 220)" stroke="#2A2A2A" stroke-linejoin="round" stroke-linecap="round">
    <path d="M -70 100 L -70 -10 L 8 -55 L 8 100 Z" fill="#F0D090" stroke="#2A2A2A" stroke-width="1.5"/>
    <path d="M 8 -55 L 70 -10 L 70 100 L 8 100 Z" fill="#DCC9BF" stroke="#2A2A2A" stroke-width="1.5"/>
    <line x1="8" y1="-55" x2="8" y2="100" stroke="#2A2A2A" stroke-width="1.2"/>

    <rect x="-50" y="0" width="22" height="16" fill="none" stroke="#2A2A2A" stroke-width="1.2"/>

    <path d="M 45 100 Q 52 50 44 10 Q 40 -5 25 -3" fill="none" stroke="#2A2A2A" stroke-width="1.5" stroke-linecap="round"/>
    <path d="M 19 -3 Q 19 -12 25 -12 Q 31 -12 31 -3 Z" fill="none" stroke="#2A2A2A" stroke-width="1.2"/>
    <ellipse cx="45" cy="100" rx="5" ry="1.5" fill="#2A2A2A" stroke="none"/>

    <rect x="-25" y="42" width="50" height="16" rx="6" fill="none" stroke="#2A2A2A" stroke-width="1.5"/>
    <rect x="-27" y="56" width="54" height="18" rx="5" fill="none" stroke="#2A2A2A" stroke-width="1.5"/>
    <rect x="-32" y="48" width="8" height="26" rx="3" fill="none" stroke="#2A2A2A" stroke-width="1.5"/>
    <rect x="24" y="48" width="8" height="26" rx="3" fill="none" stroke="#2A2A2A" stroke-width="1.5"/>

    <rect x="-55" y="70" width="10" height="30" fill="#C0C0C0" stroke="#2A2A2A" stroke-width="1.2"/>
    <rect x="-57" y="68" width="14" height="3" fill="#C0C0C0" stroke="#2A2A2A" stroke-width="1.2"/>
    <ellipse cx="-50" cy="62" rx="3" ry="8" fill="#8FBC8F" stroke="#2A2A2A" stroke-width="1"/>
    <ellipse cx="-47" cy="60" rx="3" ry="9" fill="#8FBC8F" stroke="#2A2A2A" stroke-width="1"/>
  </g>

  <text x="300" y="400" font-family="Montserrat, Poppins, Helvetica, Arial, sans-serif"
        font-size="42" font-weight="700" fill="#2A2A2A"
        text-anchor="middle" letter-spacing="0">AURA LIVING</text>
  <text x="300" y="430" font-family="Montserrat, Poppins, Helvetica, Arial, sans-serif"
        font-size="13" font-weight="400" fill="#2A2A2A"
        text-anchor="middle" letter-spacing="4">SINCE 2026</text>
</svg>
