<svg xmlns="http://www.w3.org/2000/svg" viewBox="0 0 800 1000" width="800" height="1000">
  <!-- AURA LIVING — Final Logo v3 (refined based on VLM feedback)
       Fixes: removed decorative dot, tightened tagline alignment,
       adjusted spacing for perfect balance -->

  <!-- Background -->
  <rect width="800" height="1000" fill="#FAF8F4"/>

  <!-- Traced icon — centered, scaled to 600x600 area -->
  <g transform="translate(100, 80) scale(0.5859)">
    <path d="M0 0 C264 0 528 0 800 0 C800 264 800 528 800 800 C536 800 272 800 0 800 C0 536 0 272 0 0 Z " fill="#FFFFFF" transform="translate(112,112)"/>
    <path d="M0 0 C3.95 0.84 6.09 2.91 8.84 5.70 C9.91 6.72 10.97 7.74 12.03 8.77 C12.54 9.26 13.05 9.76 13.57 10.27 C15.28 11.93 17.04 13.51 18.84 15.07 C19.46 15.61 20.08 16.15 20.72 16.70 C22.54 18.26 24.36 19.82 26.18 21.38 C32.73 26.96 39.19 32.60 45.54 38.41 C50.01 42.49 54.58 46.45 59.19 50.38 C60.39 51.40 61.58 52.42 62.78 53.45 C63.39 53.96 63.99 54.48 64.62 55.01 C68.36 58.22 72.03 61.48 75.66 64.82 C79.13 68.01 82.67 71.05 86.34 74.01 C91.14 77.88 95.64 81.98 100.13 86.19 C103.48 89.31 106.90 92.27 110.47 95.13 C115.23 98.95 119.68 103.02 124.14 107.19 C127.46 110.29 130.86 113.23 134.41 116.07 C139.43 120.10 144.09 124.43 148.78 128.84 C152.24 132.08 155.76 135.17 159.47 138.13 C163.83 141.62 167.91 145.31 171.97 149.13 C176.88 153.76 181.91 158.10 187.18 162.32 C191.60 165.99 195.77 169.93 199.98 173.86 C202.88 176.56 205.85 179.17 208.85 181.77 C219.31 190.97 219.31 190.97 223.97 195.63 C224.07 197.29 224.09 198.96 224.10 200.63 C224.10 201.17 224.10 201.17 224.10 203.92 C224.10 204.53 224.10 204.53 224.10 207.59 C224.10 208.87 224.10 210.14 224.10 211.45 C224.10 215.01 224.10 218.56 224.10 222.11 C224.10 225.94 224.10 229.76 224.10 233.59 C224.11 241.09 224.11 248.59 224.10 256.09 C224.10 262.18 224.10 268.28 224.10 274.37 C224.10 275.24 224.10 276.10 224.10 276.99 C224.10 278.75 224.10 280.51 224.10 282.27 C224.11 298.77 224.10 315.27 224.10 331.78 C224.10 345.96 224.10 360.13 224.10 374.31 C224.10 390.75 224.11 407.20 224.10 423.64 C224.10 425.39 224.10 427.14 224.10 428.90 C224.10 429.76 224.10 430.62 224.10 431.51 C224.10 437.60 224.10 443.69 224.11 449.78 C224.11 457.19 224.11 464.61 224.10 472.02 C224.10 475.81 224.10 479.60 224.11 483.39 C224.12 487.48 224.11 491.58 224.10 495.67 C224.10 496.89 224.10 498.10 224.11 499.34 C224.10 500.43 224.09 501.52 224.09 502.64 C224.09 503.59 224.09 504.53 224.09 505.51 C223.97 507.63 223.97 507.63 222.97 508.63 C220.60 508.73 218.26 508.77 215.89 508.76 C215.14 508.76 214.38 508.76 213.61 508.76 C211.05 508.77 208.49 508.76 205.94 508.76 C204.10 508.76 202.26 508.76 200.42 508.76 C195.34 508.77 190.27 508.77 185.19 508.76 C179.72 508.76 174.26 508.76 168.79 508.77 C158.08 508.77 147.36 508.77 136.64 508.77 C127.93 508.76 119.23 508.77 110.52 508.77 C109.28 508.77 108.04 508.77 106.77 508.77 C104.26 508.77 101.75 508.77 99.23 508.77 C76.32 508.77 53.40 508.77 30.49 508.76 C9.56 508.76 -11.38 508.76 -32.31 508.76 C-55.81 508.77 -79.30 508.77 -102.80 508.77 C-105.30 508.77 -107.81 508.77 -110.31 508.77 C-110.93 508.77 -110.93 508.77 -114.05 508.77 C-122.75 508.76 -131.45 508.77 -140.15 508.77 C-150.75 508.77 -161.34 508.77 -171.94 508.77 C-177.35 508.76 -182.77 508.76 -188.18 508.77 C-193.13 508.77 -198.07 508.77 -203.02 508.76 C-204.82 508.76 -206.61 508.76 -208.41 508.77 C-210.84 508.77 -213.27 508.77 -215.70 508.76 C-216.05 508.76 -216.40 508.76 -216.77 508.76 C-217.05 508.76 -217.34 508.76 -217.63 508.76 C-217.89 508.76 -218.15 508.76 -218.42 508.76 C-220.86 508.75 -223.14 508.60 -225.53 508.13 C-226.21 508.10 -226.90 508.07 -227.61 508.04 C-229.97 507.63 -229.97 507.63 -231.97 505.63 C-232.13 466.15 -232.27 426.67 -232.36 387.18 C-232.37 382.52 -232.38 377.86 -232.39 373.20 C-232.40 372.74 -232.40 372.27 -232.41 371.78 C-232.46 356.74 -232.52 341.71 -232.60 326.68 C-232.68 311.27 -232.73 295.85 -232.74 280.43 C-232.75 270.93 -232.79 261.42 -232.86 251.92 C-232.90 245.39 -232.91 238.86 -232.90 232.33 C-232.90 228.56 -232.91 224.79 -232.95 221.02 C-232.99 216.95 -232.97 212.87 -232.95 208.79 C-232.97 207.61 -232.99 206.43 -233.02 205.21 C-232.93 199.16 -232.42 195.78 -228.10 191.40 C-226.75 190.25 -225.39 189.13 -224.03 188.01 C-223.12 187.23 -222.21 186.45 -221.27 185.65 C-220.86 185.33 -220.45 185.01 -220.03 184.68 C-218.36 183.31 -216.69 181.95 -215.03 180.58 C-213.92 179.68 -213.92 179.68 -212.78 178.76 C-208.72 175.50 -204.84 172.12 -201.03 168.57 C-196.44 164.30 -191.70 160.31 -186.81 156.38 C-183.26 153.43 -179.90 150.31 -176.52 147.16 C-173.19 144.08 -169.76 141.17 -166.22 138.32 C-162.53 135.35 -159.18 132.28 -155.89 128.88 C-152.76 125.84 -149.32 123.19 -145.92 120.46 C-143.04 118.08 -140.28 115.61 -137.53 113.08 C-134.02 109.84 -130.45 106.75 -126.72 103.77 C-121.66 99.69 -116.95 95.33 -112.22 90.88 C-108.78 87.66 -105.28 84.59 -101.59 81.65 C-97.03 78.00 -92.77 74.10 -88.53 70.09 C-83.47 65.30 -78.30 60.79 -72.85 56.44 C-68.14 52.52 -63.71 48.29 -59.24 44.09 C-55.09 40.21 -50.82 36.48 -46.50 32.79 C-44.72 31.27 -42.94 29.75 -41.16 28.23 C-40.85 27.97 -40.54 27.71 -40.23 27.45 C-39.73 27.02 -39.23 26.60 -38.72 26.17 C-37.84 25.42 -36.96 24.68 -36.08 23.93 C-34.06 22.20 -32.05 20.46 -30.03 18.73 C-28.07 17.04 -26.13 15.33 -24.18 13.63 C-23.32 12.87 -22.45 12.12 -21.58 11.36 C-20.83 10.71 -20.07 10.05 -19.32 9.40 C-18.99 9.12 -18.66 8.84 -18.31 8.55 C-15.96 6.55 -13.81 4.40 -11.69 2.18 C-9.34 -0.39 -6.42 -0.46 -3.97 0.10 C-1.83 1.05 -1.04 1.84 0 0 Z " fill="#052234" transform="translate(402.03,162.37)"/>
  </g>

  <!-- WORDMARK — AURA LIVING (refined: tighter to icon, more centered) -->
  <text x="400" y="770"
        font-family="Avenir Next Heavy, Montserrat ExtraBold, Gilroy ExtraBold, Helvetica, Arial, sans-serif"
        font-size="68" font-weight="800"
        fill="#2E2E2E"
        text-anchor="middle"
        letter-spacing="10">AURA LIVING</text>

  <!-- Mustard accent rule — perfectly aligned with wordmark width -->
  <line x1="260" y1="805" x2="540" y2="805"
        stroke="#F2C66D" stroke-width="2.5" stroke-linecap="round"/>

  <!-- Tagline — perfectly centered, refined spacing -->
  <text x="400" y="845"
        font-family="Avenir Next, Montserrat, Helvetica, Arial, sans-serif"
        font-size="13" font-weight="500"
        fill="#6B5D4F"
        text-anchor="middle"
        letter-spacing="7">CONSIDERED OBJECTS FOR THE CONSIDERED HOME</text>
</svg>
